<?xml version="1.0" standalone="no"?>
<!DOCTYPE svg PUBLIC "-//W3C//DTD SVG 20010904//EN"
 "http://www.w3.org/TR/2001/REC-SVG-20010904/DTD/svg10.dtd">
<svg version="1.0" xmlns="http://www.w3.org/2000/svg"
 width="225.000000pt" height="225.000000pt" viewBox="0 0 225.000000 225.000000"
 preserveAspectRatio="xMidYMid meet">
<metadata>
Created by potrace 1.15, written by Peter Selinger 2001-2017
</metadata>
<g transform="translate(0.000000,225.000000) scale(0.100000,-0.100000)"
fill="#000000" stroke="none">
<path d="M933 2116 c-382 -73 -680 -352 -785 -735 -31 -111 -31 -381 0 -493
47 -173 128 -315 251 -442 95 -98 173 -154 292 -210 152 -72 245 -91 429 -90
123 1 171 5 232 22 368 100 630 362 730 730 17 61 21 109 22 232 1 184 -18
277 -90 429 -56 119 -112 197 -210 292 -128 123 -273 206 -442 250 -100 27
-325 35 -429 15z m-345 -969 c-3 -257 -4 -272 -22 -275 -10 -2 -22 2 -27 10
-5 7 -9 129 -9 270 0 231 2 258 17 266 42 24 43 14 41 -271z m529 49 l121
-228 52 96 c71 132 73 132 157 -22 l39 -72 120 225 c65 123 125 227 133 230
15 6 41 -12 41 -28 0 -5 -62 -126 -137 -269 -115 -216 -141 -258 -158 -256
-14 2 -36 33 -71 97 l-52 93 -52 -96 c-43 -80 -56 -97 -73 -94 -16 2 -48 55
-137 220 -64 119 -118 219 -121 223 -3 3 -57 -91 -119 -207 -62 -117 -118
-219 -125 -227 -15 -15 -43 -9 -50 12 -6 14 259 517 279 529 6 4 16 6 21 5 6
-2 65 -106 132 -231z"/>
</g>
</svg>
